# Blender v2.78 (sub 0) OBJ File: ''
# www.blender.org
mtllib grassModel.mtl
o Cube
v 0.004817 0.002983 1.695893
v -0.554037 2.782036 1.695893
v -0.560677 2.781993 -1.726936
v -0.001823 0.002983 -1.726936
v -1.210082 4.203103 1.695894
v -0.213865 1.522915 1.695893
v -0.220505 1.523038 -1.726936
v -1.216722 4.203103 -1.726936
v 0.001328 1.522980 -0.102461
v -0.338854 2.782013 -0.108075
v -0.994839 4.203103 -0.077017
v 0.219933 0.002983 -0.142489
v 0.219933 0.002983 -0.142489
v -0.554037 2.782036 1.695893
v -0.338854 2.782013 -0.108075
v -0.338854 2.782013 -0.108075
v -0.338854 2.782013 -0.108075
v -0.213865 1.522915 1.695893
v -0.220505 1.523038 -1.726936
v -0.560677 2.781993 -1.726936
v 0.001328 1.522980 -0.102461
v 0.001328 1.522980 -0.102461
v 0.001328 1.522980 -0.102461
v -0.994839 4.203103 -0.077017
vt 0.5177 0.6616
vt 0.9822 0.3619
vt 0.9822 0.6616
vt 0.5161 0.3619
vt 0.9822 0.0001
vt 0.9822 0.3619
vt 0.0001 0.6616
vt 0.5088 0.9999
vt 0.0001 0.9999
vt 0.5088 0.9999
vt 0.9822 0.6616
vt 0.9822 0.9999
vt 0.5177 0.6616
vt 0.0001 0.3619
vt 0.5161 0.3619
vt 0.5161 0.3619
vt 0.0001 0.0001
vt 0.5276 0.0001
vt 0.5161 0.3619
vt 0.5276 0.0001
vt 0.5177 0.6616
vt 0.5177 0.6616
vt 0.0001 0.6616
vt 0.0001 0.3619
vn 0.9570 0.2586 -0.1311
vn 0.9809 0.1411 -0.1339
vn 0.9025 0.4166 0.1096
vn 0.9012 0.4160 -0.1212
vn 0.9589 0.2596 0.1147
vn 0.9837 0.1384 0.1151
vn 0.9572 0.2581 -0.1307
vn 0.9799 0.1445 -0.1372
vn 0.9035 0.4147 0.1078
vn 0.9000 0.4181 -0.1233
vn 0.9591 0.2591 0.1144
vn 0.9829 0.1414 0.1176
usemtl Material.001
s off
f 16/1/1 19/2/1 20/3/1
f 23/4/2 4/5/2 7/6/2
f 14/7/3 11/8/3 5/9/3
f 24/10/4 3/11/4 8/12/4
f 17/13/5 18/14/5 21/15/5
f 9/16/6 1/17/6 12/18/6
f 16/1/7 22/19/7 19/2/7
f 23/4/8 13/20/8 4/5/8
f 14/7/9 15/21/9 11/8/9
f 24/10/10 10/22/10 3/11/10
f 17/13/11 2/23/11 18/14/11
f 9/16/12 6/24/12 1/17/12
